<mxfile host="app.diagrams.net" modified="2024-01-09T15:03:19.318Z" agent="Mozilla/5.0 (X11; Linux x86_64) AppleWebKit/537.36 (KHTML, like Gecko) Chrome/119.0.0.0 Safari/537.36 OPR/105.0.0.0" version="22.1.17" etag="8VCb-HkGqqVxLVcVAmD7" type="github">
  <diagram name="Page-1" id="ibyG2AdDbrTNiA_Hhm8r">
    <mxGraphModel>
      <root>
        <mxCell id="0" />
        <mxCell id="1" parent="0" />
      </root>
    </mxGraphModel>
  </diagram>
</mxfile>
